HIERARCHY
ROOT joint_Root
{
	OFFSET 0.0 0.0 0.0
	CHANNELS 6 Xposition Yposition Zposition Zrotation Xrotation Yrotation 
	JOINT Hips
	{
		OFFSET -17.1583 93.1646 452.98
		CHANNELS 6 Xposition Yposition Zposition Zrotation Xrotation Yrotation 
		JOINT Spine
		{
			OFFSET 15.7357 0.0 0.0
			CHANNELS 6 Xposition Yposition Zposition Zrotation Xrotation Yrotation 
			JOINT Chest
			{
				OFFSET 8.98455 -0.406207 0.0
				CHANNELS 6 Xposition Yposition Zposition Zrotation Xrotation Yrotation 
				JOINT Neck
				{
					OFFSET 16.3773 0.0 0.0
					CHANNELS 6 Xposition Yposition Zposition Zrotation Xrotation Yrotation 
					JOINT Head
					{
						OFFSET 6.45672 0.0 0.0
						CHANNELS 6 Xposition Yposition Zposition Zrotation Xrotation Yrotation 
						End Site
						{
							OFFSET 0.0 0.0 0.0
						}
					}
				}
				JOINT Shoulder_L
				{
					OFFSET 12.9942 -0.242716 4.98039
					CHANNELS 6 Xposition Yposition Zposition Zrotation Xrotation Yrotation 
					JOINT UpperArm_L
					{
						OFFSET 5.34809 0.0 0.0
						CHANNELS 6 Xposition Yposition Zposition Zrotation Xrotation Yrotation 
						JOINT LowerArm_L
						{
							OFFSET 24.3286 1.87007e-05 0.0
							CHANNELS 6 Xposition Yposition Zposition Zrotation Xrotation Yrotation 
							JOINT Hand_L
							{
								OFFSET 22.2916 0.0 0.0
								CHANNELS 6 Xposition Yposition Zposition Zrotation Xrotation Yrotation 
								End Site
								{
									OFFSET 0.0 0.0 0.0
								}
							}
						}
					}
				}
				JOINT Shoulder_R
				{
					OFFSET 12.9945 -0.242716 -4.98039
					CHANNELS 6 Xposition Yposition Zposition Zrotation Xrotation Yrotation 
					JOINT UpperArm_R
					{
						OFFSET -5.34813 0.0 0.0
						CHANNELS 6 Xposition Yposition Zposition Zrotation Xrotation Yrotation 
						JOINT LowerArm_R
						{
							OFFSET -24.3289 0.000322201 0.0
							CHANNELS 6 Xposition Yposition Zposition Zrotation Xrotation Yrotation 
							JOINT Hand_R
							{
								OFFSET -22.2915 -0.000108084 0.0
								CHANNELS 6 Xposition Yposition Zposition Zrotation Xrotation Yrotation 
								End Site
								{
									OFFSET 0.0 0.0 0.0
								}
							}
						}
					}
				}
			}
		}
		JOINT UpperLeg_L
		{
			OFFSET -2.19248 -6.46944 0.0
			CHANNELS 6 Xposition Yposition Zposition Zrotation Xrotation Yrotation 
			JOINT LowerLeg_L
			{
				OFFSET 39.0811 0.0 -1.23785e-05
				CHANNELS 6 Xposition Yposition Zposition Zrotation Xrotation Yrotation 
				JOINT Foot_L
				{
					OFFSET 40.9854 0.0 -1.26872e-05
					CHANNELS 6 Xposition Yposition Zposition Zrotation Xrotation Yrotation 
					JOINT Toes_L
					{
						OFFSET 11.7543 0.0 0.0
						CHANNELS 6 Xposition Yposition Zposition Zrotation Xrotation Yrotation 
						End Site
						{
							OFFSET 0.0 0.0 0.0
						}
					}
				}
			}
		}
		JOINT UpperLeg_R
		{
			OFFSET -2.19251 6.46944 0.0
			CHANNELS 6 Xposition Yposition Zposition Zrotation Xrotation Yrotation 
			JOINT LowerLeg_R
			{
				OFFSET -39.0811 -0.00228153 -0.0401928
				CHANNELS 6 Xposition Yposition Zposition Zrotation Xrotation Yrotation 
				JOINT Foot_R
				{
					OFFSET -40.9854 0.0 0.0
					CHANNELS 6 Xposition Yposition Zposition Zrotation Xrotation Yrotation 
					JOINT Toes_R
					{
						OFFSET -11.7543 0.0 0.0
						CHANNELS 6 Xposition Yposition Zposition Zrotation Xrotation Yrotation 
						End Site
						{
							OFFSET 0.0 0.0 0.0
						}
					}
				}
			}
		}
	}
}
MOTION
Frames:	6
Frame Time:	0.0333333
0.000000 0.000000 0.000000 0.000000 0.000000 -0.000000 -2.641010 92.064200 -0.301928 84.011800 0.853051 1.829050 15.735700 0.000005 -0.000001 54.919500 87.578600 -52.308400 8.984550 -0.406207 -0.000000 -3.730840 -3.043360 5.125990 16.377300 -0.000001 -0.000001 8.572220 0.634057 7.731080 6.456720 -0.000001 -0.000000 6.603330 3.739050 10.041700 12.994200 -0.242716 4.980390 -91.985300 6.126640 -72.006500 5.348090 -0.000007 -0.000001 -75.094500 27.274300 1.609100 24.328600 0.000019 0.000005 12.792500 28.926900 -25.146300 22.291600 -0.000001 0.000005 -3.117610 5.017680 6.941270 12.994500 -0.242716 -4.980390 87.888900 6.118560 -70.922100 -5.348130 -0.000001 -0.000004 -68.426000 1.652880 -4.459010 -24.328900 0.000322 -0.000009 16.618400 -18.908100 -137.353000 -22.291500 -0.000108 -0.000004 59.163800 5.680050 -19.604300 -2.192480 -6.469440 -0.000000 -172.361000 3.591250 -5.877280 39.081100 -0.000007 -0.000012 0.394154 -0.753053 27.628900 40.985400 -0.000006 -0.000013 1.110190 6.980620 -75.989200 11.754300 -0.000000 0.000003 0.000761 0.153649 -10.345400 -2.192510 6.469440 -0.000001 -170.475000 6.756210 -178.554000 -39.081100 -0.002282 -0.040193 0.087872 -0.314575 15.042900 -40.985400 0.000008 0.000006 3.255320 1.964880 -70.878400 -11.754300 -0.000006 -0.000006 -0.012455 0.288817 -4.834100
0.000000 0.000000 0.000000 0.000000 0.000000 -0.000000 -2.597420 92.086500 -0.291394 84.057600 0.879349 1.856850 15.735700 0.000005 -0.000001 55.788700 87.554500 -53.182300 8.984550 -0.406207 -0.000000 -3.650050 -3.007780 5.119770 16.377300 -0.000001 -0.000001 8.674020 0.663776 7.606990 6.456720 -0.000001 -0.000000 6.534410 3.686730 9.912520 12.994200 -0.242716 4.980390 -92.000600 6.160490 -71.969900 5.348090 -0.000007 -0.000001 -75.072300 27.266300 1.584770 24.328600 0.000019 0.000005 12.785500 28.801500 -25.221500 22.291600 -0.000001 0.000005 -3.060740 5.014110 7.017990 12.994500 -0.242716 -4.980390 87.898100 6.094960 -70.931400 -5.348130 -0.000001 -0.000004 -68.505500 1.589420 -4.434050 -24.328900 0.000322 -0.000009 16.585900 -18.871100 -137.358000 -22.291500 -0.000108 -0.000004 59.023200 5.679590 -19.442000 -2.192480 -6.469440 -0.000000 -172.440000 3.602330 -5.760620 39.081100 -0.000007 -0.000012 0.389684 -0.749244 27.480000 40.985400 -0.000006 -0.000013 1.142090 6.995750 -76.012700 11.754300 -0.000000 0.000003 0.000671 0.155443 -10.272600 -2.192510 6.469440 -0.000001 -170.578000 6.740440 -178.471000 -39.081100 -0.002282 -0.040193 0.083081 -0.298657 14.950900 -40.985400 0.000008 0.000006 3.077760 1.985210 -70.820200 -11.754300 -0.000006 -0.000006 -0.012596 0.289773 -4.794960
0.000000 0.000000 0.000000 0.000000 0.000000 -0.000000 -2.564230 92.089500 -0.303820 84.057800 0.971037 1.772510 15.735700 0.000005 -0.000001 55.922200 87.548200 -53.303100 8.984550 -0.406207 -0.000000 -3.632840 -3.006300 5.145520 16.377300 -0.000001 -0.000001 8.766570 0.667832 7.492440 6.456720 -0.000001 -0.000000 6.478160 3.602630 9.746400 12.994200 -0.242716 4.980390 -92.020000 6.208110 -71.936500 5.348090 -0.000007 -0.000001 -75.035400 27.269600 1.513260 24.328600 0.000019 0.000005 12.837400 28.848500 -25.281100 22.291600 -0.000001 0.000005 -3.047580 5.018010 6.934070 12.994500 -0.242716 -4.980390 87.912600 6.037170 -70.886000 -5.348130 -0.000001 -0.000004 -68.539400 1.612460 -4.505960 -24.328900 0.000322 -0.000009 16.476200 -18.709600 -137.322000 -22.291500 -0.000108 -0.000004 59.110500 5.679670 -19.469700 -2.192480 -6.469440 -0.000000 -172.451000 3.647290 -5.889320 39.081100 -0.000007 -0.000012 0.391171 -0.751933 27.485400 40.985400 -0.000006 -0.000013 1.170230 7.038260 -75.942800 11.754300 -0.000000 0.000003 0.000625 0.156336 -10.236400 -2.192510 6.469440 -0.000001 -170.577000 6.748890 -178.569000 -39.081100 -0.002282 -0.040193 0.083204 -0.299571 14.929300 -40.985400 0.000008 0.000006 3.114130 1.898650 -70.796300 -11.754300 -0.000006 -0.000006 -0.012621 0.289943 -4.787960
0.000000 0.000000 0.000000 0.000000 0.000000 -0.000000 -2.512230 92.105600 -0.307512 84.078500 1.016180 1.732800 15.735700 0.000005 -0.000001 56.117200 87.544800 -53.496900 8.984550 -0.406207 -0.000000 -3.618030 -2.996050 5.148750 16.377300 -0.000001 -0.000001 8.896500 0.664711 7.376130 6.456720 -0.000001 -0.000000 6.439270 3.582580 9.678720 12.994200 -0.242716 4.980390 -92.031500 6.231470 -71.903100 5.348090 -0.000007 -0.000001 -75.059100 27.334900 1.555040 24.328600 0.000019 0.000005 12.806500 28.627800 -25.381500 22.291600 -0.000001 0.000005 -3.122160 5.015610 6.985770 12.994500 -0.242716 -4.980390 87.910300 6.030970 -70.848800 -5.348130 -0.000001 -0.000004 -68.467800 1.697000 -4.540290 -24.328900 0.000322 -0.000009 16.347900 -18.524100 -137.284000 -22.291500 -0.000108 -0.000004 59.212400 5.679490 -19.407400 -2.192480 -6.469440 -0.000000 -172.502000 3.582830 -5.889060 39.081100 -0.000007 -0.000012 0.388296 -0.749338 27.393500 40.985400 -0.000006 -0.000013 1.217610 7.079420 -75.911900 11.754300 -0.000000 0.000003 0.000585 0.157109 -10.205000 -2.192510 6.469440 -0.000001 -170.644000 6.709940 -178.614000 -39.081100 -0.002282 -0.040193 0.080399 -0.289178 14.923000 -40.985400 0.000008 0.000006 2.851340 1.905590 -70.739600 -11.754300 -0.000006 -0.000006 -0.012500 0.289126 -4.821450
0.000000 0.000000 0.000000 0.000000 0.000000 -0.000000 -2.474190 92.112500 -0.299773 84.094700 1.093710 1.699590 15.735700 0.000005 -0.000001 56.304900 87.541200 -53.685700 8.984550 -0.406207 -0.000000 -3.603270 -2.986300 5.147240 16.377300 -0.000001 -0.000001 8.982020 0.681981 7.394330 6.456720 -0.000001 -0.000000 6.422910 3.533450 9.527590 12.994200 -0.242716 4.980390 -92.040000 6.246360 -71.872800 5.348090 -0.000007 -0.000001 -75.094800 27.475200 1.596960 24.328600 0.000019 0.000005 12.825700 28.519500 -25.493100 22.291600 -0.000001 0.000005 -3.141260 5.012160 7.059830 12.994500 -0.242716 -4.980390 87.921800 5.988940 -70.822500 -5.348130 -0.000001 -0.000004 -68.408500 1.754640 -4.567410 -24.328900 0.000322 -0.000009 16.308700 -18.429700 -137.215000 -22.291500 -0.000108 -0.000004 59.483500 5.678940 -19.230700 -2.192480 -6.469440 -0.000000 -172.543000 3.645010 -5.918030 39.081100 -0.000007 -0.000012 0.387993 -0.750084 27.352000 40.985400 -0.000006 -0.000013 1.250390 7.105930 -75.872100 11.754300 -0.000000 0.000003 0.000584 0.157127 -10.204300 -2.192510 6.469440 -0.000001 -170.696000 6.755920 -178.649000 -39.081100 -0.002282 -0.040193 0.079054 -0.284250 14.917200 -40.985400 0.000008 0.000006 2.749940 1.945990 -70.700200 -11.754300 -0.000006 -0.000006 -0.012573 0.289617 -4.801350
0.000000 0.000000 0.000000 0.000000 0.000000 -0.000000 -2.433660 92.125300 -0.303412 84.102400 1.179950 1.703890 15.735700 0.000005 -0.000001 56.416400 87.526800 -53.799300 8.984550 -0.406207 -0.000000 -3.573850 -2.993390 5.143540 16.377300 -0.000001 -0.000001 9.079620 0.683419 7.372700 6.456720 -0.000001 -0.000000 6.386630 3.475910 9.500110 12.994200 -0.242716 4.980390 -92.056600 6.277630 -71.819800 5.348090 -0.000007 -0.000001 -75.131200 27.493600 1.625950 24.328600 0.000019 0.000005 12.820900 28.452800 -25.532300 22.291600 -0.000001 0.000005 -3.081180 5.010980 7.085060 12.994500 -0.242716 -4.980390 87.922200 5.970890 -70.772600 -5.348130 -0.000001 -0.000004 -68.385600 1.686400 -4.541910 -24.328900 0.000322 -0.000009 16.083500 -18.137000 -137.193000 -22.291500 -0.000108 -0.000004 59.415100 5.679150 -19.296300 -2.192480 -6.469440 -0.000000 -172.579000 3.653550 -5.902410 39.081100 -0.000007 -0.000012 0.385305 -0.746874 27.289700 40.985400 -0.000006 -0.000013 1.281880 7.118520 -75.835600 11.754300 -0.000000 0.000003 0.000619 0.156451 -10.231700 -2.192510 6.469440 -0.000001 -170.744000 6.771280 -178.647000 -39.081100 -0.002282 -0.040193 0.075906 -0.272927 14.891300 -40.985400 0.000008 0.000006 2.535100 1.884240 -70.641500 -11.754300 -0.000006 -0.000006 -0.012557 0.289510 -4.805710
